<?xml version="1.0" encoding="UTF-8"?>
<svg id="Layer_1" data-name="Layer 1" xmlns="http://www.w3.org/2000/svg" viewBox="0 0 827.01 126.47">
  <defs>
    <style>
      .cls-1 {
        fill: #f4f4f4;
        stroke-width: 0px;
      }
    </style>
  </defs>
  <path class="cls-1" d="M24.59,0L0,66.05v32.32h14.05v-22.76h35.13v22.76h14.05v-32.32L38.64,0h-14.05ZM16.72,61.55l14.76-39.35h.28l14.76,39.35h-29.79Z"/>
  <polygon class="cls-1" points="110.23 -1.41 72.99 -1.41 72.99 12.65 96.17 12.65 96.17 84.31 72.99 84.31 72.99 98.37 134.82 98.37 134.82 84.31 110.23 84.31 110.23 -1.41"/>
  <path class="cls-1" d="M193.75,34.57l-11.66-7.87h-10.82c-13.91,0-25.29,11.24-25.29,25.29v21.08c0,13.91,11.38,25.29,25.29,25.29h10.82l11.66-7.87v7.87h14.05V26.7h-14.05v7.87ZM193.75,73.49l-16.02,10.82h-6.47c-6.18,0-11.24-5.06-11.24-11.24v-21.08c0-6.18,5.06-11.24,11.24-11.24h6.47l16.02,10.82v21.92Z"/>
  <path class="cls-1" d="M521.51,34.57l-11.66-7.87h-10.82c-13.91,0-25.29,11.24-25.29,25.29v21.08c0,13.91,11.38,25.29,25.29,25.29h10.82l11.66-7.87v7.87h14.05V26.7h-14.05v7.87ZM521.51,73.49l-16.02,10.82h-6.47c-6.18,0-11.24-5.06-11.24-11.24v-21.08c0-6.18,5.06-11.24,11.24-11.24h6.47l16.02,10.82v21.92Z"/>
  <path class="cls-1" d="M255.5,26.7h-10.82l-11.66,8.43v-8.43h-14.05v71.67h14.05v-47.21l16.02-10.4h6.46c6.18,0,11.24,5.06,11.24,11.24v46.37h14.05v-46.37c0-14.05-11.38-25.29-25.29-25.29Z"/>
  <path class="cls-1" d="M364.29,0h-11.24c-13.91,0-25.3,11.24-25.3,25.29v47.64c0,13.91,11.38,25.43,25.3,25.43h11.24c14.05,0,25.29-11.52,25.29-25.43v-7.73h-14.05v7.73c0,6.18-5.06,11.24-11.24,11.24h-11.24c-6.18,0-11.24-5.06-11.24-11.24V25.29c0-6.18,4.92-11.24,11.24-11.24h11.24c6.32,0,11.24,4.92,11.24,11.24v7.73h14.05v-7.73c0-14.05-11.24-25.29-25.29-25.29Z"/>
  <path class="cls-1" d="M437.28,26.7h-10.82l-11.66,7.87V-1.41h-14.05v99.77h14.05v-46.79l16.02-10.82h6.46c6.18,0,11.24,5.06,11.24,11.24v46.37h14.05v-46.37c0-14.05-11.38-25.29-25.29-25.29Z"/>
  <path class="cls-1" d="M594.49,73.91l-16.02,10.4h-6.46c-6.18,0-11.24-5.06-11.24-11.24V26.7h-14.05v46.37c0,14.05,11.38,25.29,25.29,25.29h10.82l11.66-8.43v8.43h14.05V26.7h-14.05v47.22Z"/>
  <path class="cls-1" d="M667.48,26.7v7.87l-11.66-7.87h-10.82c-13.91,0-25.29,11.38-25.29,25.29v21.08c0,14.05,11.38,25.29,25.29,25.29h10.82l11.66-7.87v21.92h14.05V26.7h-14.05ZM667.48,73.49l-16.02,10.82h-6.46c-6.18,0-11.24-5.06-11.24-11.24v-21.08c0-6.18,5.06-11.24,11.24-11.24h6.46l16.02,10.82v21.92Z"/>
  <path class="cls-1" d="M717.98,98.37h10.82l11.66-8.43v8.43h14.05V26.7h-14.05v47.22l-16.02,10.4h-6.46c-6.18,0-11.24-5.06-11.24-11.24V26.7h-14.05v46.37c0,14.05,11.38,25.29,25.29,25.29Z"/>
  <path class="cls-1" d="M827.01,65.76v-15.18c-.7-13.35-11.66-23.89-25.29-23.89h-11.24c-13.91,0-25.29,11.24-25.29,25.29v20.94c0,13.91,11.38,25.43,25.29,25.43h11.24c14.05,0,25.29-11.52,25.29-25.43v-1.4h-14.05v1.4c0,6.18-5.06,11.24-11.24,11.24h-11.24c-6.18,0-11.24-5.06-11.24-11.24v-7.17h47.78ZM779.23,51.99c0-6.18,4.92-11.24,11.24-11.24h11.24c6.32,0,11.24,4.92,11.24,11.24v2.53h-33.72v-2.53Z"/>
  <rect class="cls-1" x="560.77" y=".79" width="33.73" height="14.05"/>
  <rect class="cls-1" x="681.53" y="112.42" width="145.47" height="14.05"/>
</svg>