<?xml version="1.0" encoding="UTF-8"?>
<svg id="Layer_1" data-name="Layer 1" xmlns="http://www.w3.org/2000/svg" viewBox="0 0 478.8 226.25">
  <defs>
    <style>
      .cls-1 {
        fill: #f4f4f4;
        stroke-width: 0px;
      }
    </style>
  </defs>
  <path class="cls-1" d="M23.58,1.35L0,64.69v31h13.48v-21.83h33.69v21.83h13.48v-31L37.06,1.35h-13.48ZM16.04,60.37l14.15-37.73h.27l14.15,37.73h-28.57Z"/>
  <polygon class="cls-1" points="105.71 0 70 0 70 13.48 92.23 13.48 92.23 82.21 70 82.21 70 95.68 129.29 95.68 129.29 82.21 105.71 82.21 105.71 0"/>
  <path class="cls-1" d="M185.81,34.5l-11.18-7.55h-10.38c-13.34,0-24.26,10.78-24.26,24.26v122.48c0,13.34,10.92,24.26,24.26,24.26h10.38l11.18-7.55v7.55h13.48V26.95h-13.48v7.55ZM185.81,174.09l-15.36,10.38h-6.2c-5.93,0-10.78-4.85-10.78-10.78V51.21c0-5.93,4.85-10.78,10.78-10.78h6.2l15.36,10.38v123.28Z"/>
  <path class="cls-1" d="M245.03,26.95h-10.38l-11.18,8.09v-8.09h-13.48v68.73h13.48v-45.28l15.36-9.97h6.2c5.93,0,10.78,4.85,10.78,10.78v44.47h13.48v-44.47c0-13.48-10.92-24.26-24.26-24.26Z"/>
  <path class="cls-1" d="M35.04,104.96h-10.78c-13.34,0-24.26,10.78-24.26,24.26v45.68c0,13.34,10.92,24.39,24.26,24.39h10.78c13.48,0,24.26-11.05,24.26-24.39v-7.41h-13.48v7.41c0,5.93-4.85,10.78-10.78,10.78h-10.78c-5.93,0-10.78-4.85-10.78-10.78v-45.68c0-5.93,4.72-10.78,10.78-10.78h10.78c6.07,0,10.78,4.72,10.78,10.78v7.41h13.48v-7.41c0-13.48-10.78-24.26-24.26-24.26Z"/>
  <path class="cls-1" d="M105.04,130.56h-10.38l-11.18,7.55v-34.5h-13.48v95.68h13.48v-44.88l15.36-10.38h6.2c5.93,0,10.78,4.85,10.78,10.78v44.47h13.48v-44.47c0-13.48-10.92-24.26-24.26-24.26Z"/>
  <path class="cls-1" d="M255.81,175.84l-15.36,9.97h-6.2c-5.93,0-10.78-4.85-10.78-10.78v-44.47h-13.48v44.47c0,13.48,10.92,24.26,24.26,24.26h10.38l11.19-8.09v8.09h13.48v-68.73h-13.48v45.28Z"/>
  <path class="cls-1" d="M325.81,130.56v7.55l-11.18-7.55h-10.38c-13.34,0-24.26,10.92-24.26,24.26v20.22c0,13.48,10.92,24.26,24.26,24.26h10.38l11.18-7.55v21.02h13.48v-82.21h-13.48ZM325.81,175.44l-15.36,10.38h-6.2c-5.93,0-10.78-4.85-10.78-10.78v-20.22c0-5.93,4.85-10.78,10.78-10.78h6.2l15.36,10.38v21.02Z"/>
  <path class="cls-1" d="M374.24,199.29h10.38l11.19-8.09v8.09h13.48v-68.73h-13.48v45.28l-15.36,9.97h-6.2c-5.93,0-10.78-4.85-10.78-10.78v-44.47h-13.48v44.47c0,13.48,10.92,24.26,24.26,24.26Z"/>
  <path class="cls-1" d="M478.8,168.03v-14.55c-.67-12.8-11.19-22.91-24.26-22.91h-10.78c-13.34,0-24.26,10.78-24.26,24.26v20.08c0,13.34,10.92,24.39,24.26,24.39h10.78c13.48,0,24.26-11.05,24.26-24.39v-1.35h-13.48v1.35c0,5.93-4.85,10.78-10.78,10.78h-10.78c-5.93,0-10.78-4.85-10.78-10.78v-6.87h45.82ZM432.98,154.82c0-5.93,4.72-10.78,10.78-10.78h10.78c6.06,0,10.78,4.72,10.78,10.78v2.43h-32.34v-2.43Z"/>
  <rect class="cls-1" x="223.47" y="105.71" width="32.34" height="13.48"/>
  <rect class="cls-1" x="339.28" y="212.77" width="139.51" height="13.48"/>
</svg>