<?xml version="1.0" encoding="UTF-8"?>
<svg id="Layer_1" data-name="Layer 1" xmlns="http://www.w3.org/2000/svg" viewBox="0 0 141.73 141.73">
  <defs>
    <style>
      .cls-1 {
        fill: #f4f4f4;
        stroke-width: 0px;
      }
    </style>
  </defs>
  <path class="cls-1" d="M133.14,45.9v-23.89c0-9.77-7.95-17.72-17.72-17.72H26.29c-9.77,0-17.72,7.95-17.72,17.72v1.73H0v87c0,14.72,11.98,26.7,26.7,26.7h88.33c14.73,0,26.71-11.98,26.71-26.7V45.9h-8.59ZM12.75,22.01c0-7.47,6.07-13.55,13.54-13.55h89.13c7.47,0,13.54,6.08,13.54,13.55v23.89h-56.99l-14.9-22.15H12.76v-1.74h0ZM137.55,110.74c0,12.42-10.11,22.53-22.53,22.53H26.69c-12.42,0-22.53-10.11-22.53-22.53V27.92h50.68l14.9,22.15h67.81v60.67Z"/>
</svg>