<?xml version="1.0" encoding="UTF-8"?>
<svg id="Layer_1" data-name="Layer 1" xmlns="http://www.w3.org/2000/svg" viewBox="0 0 141.73 141.73">
  <defs>
    <style>
      .cls-1 {
        fill: #f4f4f4;
        stroke-width: 0px;
      }
    </style>
  </defs>
  <path class="cls-1" d="M113.39,33H28.34c-14.4,0-26.12,11.72-26.12,26.12v56.49c0,14.4,11.72,26.12,26.12,26.12h85.05c14.4,0,26.12-11.72,26.12-26.12v-56.49c0-14.4-11.72-26.12-26.12-26.12ZM135.47,115.62c0,12.17-9.9,22.07-22.08,22.07H28.34c-12.17,0-22.07-9.9-22.07-22.07v-56.5c0-12.17,9.9-22.08,22.07-22.08h85.05c12.17,0,22.08,9.9,22.08,22.08v56.5Z"/>
  <path class="cls-1" d="M70.87,4.04c9.68,0,17.56,7.88,17.56,17.56h4.04C92.47,9.68,82.78-.01,70.86-.01s-21.61,9.69-21.61,21.61h4.04c.01-9.68,7.89-17.56,17.58-17.56Z"/>
  <rect class="cls-1" x="27.12" y="71.74" width="87.5" height="4.04"/>
</svg>