<?xml version="1.0" encoding="UTF-8"?>
<svg id="Layer_1" data-name="Layer 1" xmlns="http://www.w3.org/2000/svg" viewBox="0 0 141.73 141.73">
  <defs>
    <style>
      .cls-1 {
        fill: #1c1c1c;
        stroke-width: 0px;
      }
    </style>
  </defs>
  <path class="cls-1" d="M70.86,67.5c18.61,0,33.75-15.14,33.75-33.75S89.47,0,70.86,0s-33.75,15.14-33.75,33.75,15.14,33.75,33.75,33.75ZM70.86,4.11c16.35,0,29.64,13.3,29.64,29.64s-13.3,29.64-29.64,29.64-29.64-13.3-29.64-29.64,13.3-29.64,29.64-29.64Z"/>
  <path class="cls-1" d="M70.86,80.07c-34,0-61.66,27.66-61.66,61.66h4.11c0-31.73,25.82-57.55,57.55-57.55s57.56,25.82,57.56,57.55h4.11c0-34-27.66-61.66-61.67-61.66Z"/>
</svg>