<?xml version="1.0" encoding="UTF-8"?>
<svg id="Layer_1" data-name="Layer 1" xmlns="http://www.w3.org/2000/svg" viewBox="0 0 141.73 141.73">
  <defs>
    <style>
      .cls-1 {
        fill: #f4f4f4;
        stroke-width: 0px;
      }
    </style>
  </defs>
  <polygon class="cls-1" points="73.16 34.46 68.58 34.46 68.58 68.58 34.47 68.58 34.47 73.15 68.58 73.15 68.58 107.27 73.16 107.27 73.16 73.15 107.28 73.15 107.28 68.58 73.16 68.58 73.16 34.46"/>
  <path class="cls-1" d="M70.86,0C31.79,0,0,31.79,0,70.87s31.79,70.87,70.87,70.87,70.87-31.79,70.87-70.87S109.94,0,70.86,0ZM70.86,137.16c-36.56,0-66.3-29.74-66.3-66.3S34.3,4.56,70.86,4.56s66.3,29.74,66.3,66.3-29.74,66.3-66.3,66.3Z"/>
</svg>