<?xml version="1.0" encoding="utf-8"?>
<!-- Generator: Adobe Illustrator 28.4.1, SVG Export Plug-In . SVG Version: 6.00 Build 0)  -->
<svg version="1.1" id="Layer_1" xmlns="http://www.w3.org/2000/svg" xmlns:xlink="http://www.w3.org/1999/xlink" x="0px" y="0px"
	 viewBox="0 0 141.73 141.73" style="enable-background:new 0 0 141.73 141.73;" xml:space="preserve">
<style type="text/css">
	.st0{fill:#F4F4F4;}
</style>
<g>
	<path class="st0" d="M-737.79,67.5c18.61,0,33.75-15.14,33.75-33.75S-719.18,0-737.79,0s-33.75,15.14-33.75,33.75
		S-756.4,67.5-737.79,67.5z M-737.79,4.11c16.35,0,29.64,13.3,29.64,29.64c0,16.35-13.3,29.64-29.64,29.64s-29.64-13.3-29.64-29.64
		S-754.13,4.11-737.79,4.11z"/>
	<path class="st0" d="M-737.79,80.07c-34,0-61.66,27.66-61.66,61.66h4.11c0-31.73,25.82-57.55,57.55-57.55
		c31.74,0,57.56,25.82,57.56,57.55h4.11C-676.12,107.73-703.79,80.07-737.79,80.07z"/>
</g>
<g>
	<path class="st0" d="M-533.53,33h-85.05c-14.4,0-26.12,11.72-26.12,26.12v56.49c0,14.4,11.72,26.12,26.12,26.12h85.05
		c14.4,0,26.12-11.72,26.12-26.12V59.12C-507.41,44.72-519.13,33-533.53,33z M-511.45,115.62c0,12.17-9.9,22.07-22.08,22.07h-85.05
		c-12.17,0-22.07-9.9-22.07-22.07v-56.5c0-12.17,9.9-22.08,22.07-22.08h85.05c12.17,0,22.08,9.9,22.08,22.08V115.62z"/>
	<path class="st0" d="M-576.05,4.04c9.68,0,17.56,7.88,17.56,17.56h4.04c0-11.92-9.69-21.61-21.61-21.61s-21.61,9.69-21.61,21.61
		h4.04C-593.62,11.92-585.74,4.04-576.05,4.04z"/>
	<rect x="-619.8" y="71.74" class="st0" width="87.5" height="4.04"/>
</g>
<path class="st0" d="M-352.04,45.9V22.01c0-9.77-7.95-17.72-17.72-17.72h-89.13c-9.77,0-17.72,7.95-17.72,17.72v1.73h-8.58v87
	c0,14.72,11.98,26.7,26.7,26.7h88.33c14.73,0,26.71-11.98,26.71-26.7V45.9H-352.04z M-472.43,22.01c0-7.47,6.07-13.55,13.54-13.55
	h89.13c7.47,0,13.54,6.08,13.54,13.55V45.9h-56.99l-14.9-22.15h-44.32L-472.43,22.01L-472.43,22.01z M-347.64,110.74
	c0,12.42-10.11,22.53-22.53,22.53h-88.33c-12.42,0-22.53-10.11-22.53-22.53V27.92h50.68l14.9,22.15h67.81V110.74z"/>
<g>
	<polygon class="st0" points="-250.3,34.46 -254.88,34.46 -254.88,68.58 -288.99,68.58 -288.99,73.15 -254.88,73.15 -254.88,107.27 
		-250.3,107.27 -250.3,73.15 -216.18,73.15 -216.18,68.58 -250.3,68.58 	"/>
	<path class="st0" d="M-252.6,0c-39.08,0-70.87,31.79-70.87,70.87s31.79,70.87,70.87,70.87s70.87-31.79,70.87-70.87
		S-213.51,0-252.6,0z M-252.6,137.16c-36.56,0-66.3-29.74-66.3-66.3s29.74-66.3,66.3-66.3s66.3,29.74,66.3,66.3
		S-216.03,137.16-252.6,137.16z"/>
</g>
<path class="st0" d="M-83.85,48.85c-1.87-1.87-4.35-2.91-7.01-2.91c0,0,0,0-0.01,0c-2.64,0-5.14,1.04-7.01,2.91l-21.85,21.85
	l2.92,2.92l21.85-21.85c0.59-0.59,1.28-1,2.03-1.29V95.8h4.13V50.47c0.75,0.29,1.45,0.7,2.03,1.29l21.86,21.85l2.92-2.91
	L-83.85,48.85z"/>
<path class="st0" d="M99.98,81.79l-2.92,2.92L75.2,62.86c-0.58-0.59-1.28-1-2.03-1.29c-0.65-0.26-1.34-0.41-2.05-0.41h-0.01
	c-0.72,0-1.42,0.15-2.07,0.41c-0.75,0.28-1.44,0.7-2.03,1.29L45.16,84.71l-2.92-2.92l21.85-21.85c1.88-1.87,4.37-2.91,7.02-2.91
	c0.01,0,0.01,0,0.01,0c2.65,0,5.13,1.04,7,2.91L99.98,81.79z"/>
</svg>
