<?xml version="1.0" encoding="utf-8"?>
<!-- Generator: Adobe Illustrator 28.4.1, SVG Export Plug-In . SVG Version: 6.00 Build 0)  -->
<svg version="1.1" id="Layer_1" xmlns="http://www.w3.org/2000/svg" xmlns:xlink="http://www.w3.org/1999/xlink" x="0px" y="0px"
	 viewBox="0 0 478.8 226.25" style="enable-background:new 0 0 478.8 226.25;" xml:space="preserve">
<style type="text/css">
	.st0{fill:#1C1C1C;}
	.st1{fill:#F4F4F4;}
</style>
<g>
	<g>
		<path class="st0" d="M-475.21,1.35l-23.58,63.34v31h13.48V73.85h33.69v21.83h13.48v-31l-23.58-63.34H-475.21z M-482.76,60.37
			l14.15-37.73h0.27l14.15,37.73H-482.76z"/>
	</g>
	<g>
		<polygon class="st0" points="-393.09,0 -428.8,0 -428.8,13.48 -406.56,13.48 -406.56,82.21 -428.8,82.21 -428.8,95.68 
			-369.5,95.68 -369.5,82.21 -393.09,82.21 		"/>
	</g>
	<g>
		<path class="st0" d="M-312.98,34.5l-11.18-7.55h-10.38c-13.34,0-24.26,10.78-24.26,24.26v122.48c0,13.34,10.92,24.26,24.26,24.26
			h10.38l11.18-7.55v7.55h13.48V26.95h-13.48V34.5z M-312.98,174.09l-15.36,10.38h-6.2c-5.93,0-10.78-4.85-10.78-10.78V51.21
			c0-5.93,4.85-10.78,10.78-10.78h6.2l15.36,10.38V174.09z"/>
	</g>
	<g>
		<path class="st0" d="M-253.77,26.95h-10.38l-11.18,8.09v-8.09h-13.48v68.73h13.48V50.4l15.36-9.97h6.2
			c5.93,0,10.78,4.85,10.78,10.78v44.47h13.48V51.21C-229.51,37.73-240.43,26.95-253.77,26.95z"/>
	</g>
	<g>
		<path class="st0" d="M-463.76,104.96h-10.78c-13.34,0-24.26,10.78-24.26,24.26v45.68c0,13.34,10.92,24.39,24.26,24.39h10.78
			c13.48,0,24.26-11.05,24.26-24.39v-7.41h-13.48v7.41c0,5.93-4.85,10.78-10.78,10.78h-10.78c-5.93,0-10.78-4.85-10.78-10.78v-45.68
			c0-5.93,4.72-10.78,10.78-10.78h10.78c6.07,0,10.78,4.72,10.78,10.78v7.41h13.48v-7.41C-439.5,115.74-450.28,104.96-463.76,104.96
			z"/>
	</g>
	<g>
		<path class="st0" d="M-393.76,130.56h-10.38l-11.18,7.55v-34.5h-13.48v95.68h13.48v-44.88l15.36-10.38h6.2
			c5.93,0,10.78,4.85,10.78,10.78v44.47h13.48v-44.47C-369.5,141.34-380.42,130.56-393.76,130.56z"/>
	</g>
	<g>
		<path class="st0" d="M-242.99,175.84l-15.36,9.97h-6.2c-5.93,0-10.78-4.85-10.78-10.78v-44.47h-13.48v44.47
			c0,13.48,10.92,24.26,24.26,24.26h10.38l11.19-8.09v8.09h13.48v-68.73h-13.48V175.84z"/>
	</g>
	<g>
		<path class="st0" d="M-172.99,130.56v7.55l-11.18-7.55h-10.38c-13.34,0-24.26,10.92-24.26,24.26v20.22
			c0,13.48,10.92,24.26,24.26,24.26h10.38l11.18-7.55v21.02h13.48v-82.21H-172.99z M-172.99,175.44l-15.36,10.38h-6.2
			c-5.93,0-10.78-4.85-10.78-10.78v-20.22c0-5.93,4.85-10.78,10.78-10.78h6.2l15.36,10.38V175.44z"/>
	</g>
	<g>
		<path class="st0" d="M-124.56,199.29h10.38l11.19-8.09v8.09h13.48v-68.73h-13.48v45.28l-15.36,9.97h-6.2
			c-5.93,0-10.78-4.85-10.78-10.78v-44.47h-13.48v44.47C-148.81,188.51-137.9,199.29-124.56,199.29z"/>
	</g>
	<g>
		<path class="st0" d="M-20,168.03v-14.55c-0.67-12.8-11.19-22.91-24.26-22.91h-10.78c-13.34,0-24.26,10.78-24.26,24.26v20.08
			c0,13.34,10.92,24.39,24.26,24.39h10.78c13.48,0,24.26-11.05,24.26-24.39v-1.35h-13.48v1.35c0,5.93-4.85,10.78-10.78,10.78h-10.78
			c-5.93,0-10.78-4.85-10.78-10.78v-6.87H-20z M-65.82,154.82c0-5.93,4.72-10.78,10.78-10.78h10.78c6.06,0,10.78,4.72,10.78,10.78
			v2.43h-32.34V154.82z"/>
	</g>
	<g>
		<rect x="-275.33" y="105.71" class="st0" width="32.34" height="13.48"/>
	</g>
	<g>
		<rect x="-159.51" y="212.77" class="st0" width="139.51" height="13.48"/>
	</g>
</g>
<g>
	<g>
		<path class="st1" d="M23.58,1.35L0,64.69v31h13.48V73.85h33.69v21.83h13.48v-31L37.06,1.35H23.58z M16.04,60.37l14.15-37.73h0.27
			l14.15,37.73H16.04z"/>
	</g>
	<g>
		<polygon class="st1" points="105.71,0 70,0 70,13.48 92.23,13.48 92.23,82.21 70,82.21 70,95.68 129.29,95.68 129.29,82.21 
			105.71,82.21 		"/>
	</g>
	<g>
		<path class="st1" d="M185.81,34.5l-11.18-7.55h-10.38c-13.34,0-24.26,10.78-24.26,24.26v122.48c0,13.34,10.92,24.26,24.26,24.26
			h10.38l11.18-7.55v7.55h13.48V26.95h-13.48V34.5z M185.81,174.09l-15.36,10.38h-6.2c-5.93,0-10.78-4.85-10.78-10.78V51.21
			c0-5.93,4.85-10.78,10.78-10.78h6.2l15.36,10.38V174.09z"/>
	</g>
	<g>
		<path class="st1" d="M245.03,26.95h-10.38l-11.18,8.09v-8.09h-13.48v68.73h13.48V50.4l15.36-9.97h6.2
			c5.93,0,10.78,4.85,10.78,10.78v44.47h13.48V51.21C269.29,37.73,258.37,26.95,245.03,26.95z"/>
	</g>
	<g>
		<path class="st1" d="M35.04,104.96H24.26C10.92,104.96,0,115.74,0,129.21v45.68c0,13.34,10.92,24.39,24.26,24.39h10.78
			c13.48,0,24.26-11.05,24.26-24.39v-7.41H45.82v7.41c0,5.93-4.85,10.78-10.78,10.78H24.26c-5.93,0-10.78-4.85-10.78-10.78v-45.68
			c0-5.93,4.72-10.78,10.78-10.78h10.78c6.07,0,10.78,4.72,10.78,10.78v7.41H59.3v-7.41C59.3,115.74,48.52,104.96,35.04,104.96z"/>
	</g>
	<g>
		<path class="st1" d="M105.04,130.56H94.66l-11.18,7.55v-34.5H70v95.68h13.48v-44.88l15.36-10.38h6.2
			c5.93,0,10.78,4.85,10.78,10.78v44.47h13.48v-44.47C129.29,141.34,118.38,130.56,105.04,130.56z"/>
	</g>
	<g>
		<path class="st1" d="M255.81,175.84l-15.36,9.97h-6.2c-5.93,0-10.78-4.85-10.78-10.78v-44.47h-13.48v44.47
			c0,13.48,10.92,24.26,24.26,24.26h10.38l11.19-8.09v8.09h13.48v-68.73h-13.48V175.84z"/>
	</g>
	<g>
		<path class="st1" d="M325.81,130.56v7.55l-11.18-7.55h-10.38c-13.34,0-24.26,10.92-24.26,24.26v20.22
			c0,13.48,10.92,24.26,24.26,24.26h10.38l11.18-7.55v21.02h13.48v-82.21H325.81z M325.81,175.44l-15.36,10.38h-6.2
			c-5.93,0-10.78-4.85-10.78-10.78v-20.22c0-5.93,4.85-10.78,10.78-10.78h6.2l15.36,10.38V175.44z"/>
	</g>
	<g>
		<path class="st1" d="M374.24,199.29h10.38l11.19-8.09v8.09h13.48v-68.73H395.8v45.28l-15.36,9.97h-6.2
			c-5.93,0-10.78-4.85-10.78-10.78v-44.47h-13.48v44.47C349.98,188.51,360.9,199.29,374.24,199.29z"/>
	</g>
	<g>
		<path class="st1" d="M478.8,168.03v-14.55c-0.67-12.8-11.19-22.91-24.26-22.91h-10.78c-13.34,0-24.26,10.78-24.26,24.26v20.08
			c0,13.34,10.92,24.39,24.26,24.39h10.78c13.48,0,24.26-11.05,24.26-24.39v-1.35h-13.48v1.35c0,5.93-4.85,10.78-10.78,10.78h-10.78
			c-5.93,0-10.78-4.85-10.78-10.78v-6.87H478.8z M432.98,154.82c0-5.93,4.72-10.78,10.78-10.78h10.78c6.06,0,10.78,4.72,10.78,10.78
			v2.43h-32.34V154.82z"/>
	</g>
	<g>
		<rect x="223.47" y="105.71" class="st1" width="32.34" height="13.48"/>
	</g>
	<g>
		<rect x="339.28" y="212.77" class="st1" width="139.51" height="13.48"/>
	</g>
</g>
<g>
	<g>
		<path class="st1" d="M1381.04,58.99l-24.59,66.04v32.32h14.05v-22.76h35.13v22.76h14.05v-32.32l-24.59-66.04H1381.04z
			 M1373.17,120.54l14.76-39.35h0.28l14.76,39.35H1373.17z"/>
	</g>
	<g>
		<polygon class="st1" points="1466.68,57.59 1429.44,57.59 1429.44,71.64 1452.63,71.64 1452.63,143.3 1429.44,143.3 
			1429.44,157.36 1491.27,157.36 1491.27,143.3 1466.68,143.3 		"/>
	</g>
	<g>
		<path class="st1" d="M1550.2,93.56l-11.66-7.87h-10.82c-13.91,0-25.29,11.24-25.29,25.29v21.08c0,13.91,11.38,25.29,25.29,25.29
			h10.82l11.66-7.87v7.87h14.05V85.69h-14.05V93.56z M1550.2,132.48l-16.02,10.82h-6.47c-6.18,0-11.24-5.06-11.24-11.24v-21.08
			c0-6.18,5.06-11.24,11.24-11.24h6.47l16.02,10.82V132.48z"/>
	</g>
	<g>
		<path class="st1" d="M1877.96,93.56l-11.66-7.87h-10.82c-13.91,0-25.29,11.24-25.29,25.29v21.08c0,13.91,11.38,25.29,25.29,25.29
			h10.82l11.66-7.87v7.87h14.05V85.69h-14.05V93.56z M1877.96,132.48l-16.02,10.82h-6.47c-6.18,0-11.24-5.06-11.24-11.24v-21.08
			c0-6.18,5.06-11.24,11.24-11.24h6.47l16.02,10.82V132.48z"/>
	</g>
	<g>
		<path class="st1" d="M1611.95,85.69h-10.82l-11.66,8.43v-8.43h-14.05v71.67h14.05v-47.21l16.02-10.4h6.46
			c6.18,0,11.24,5.06,11.24,11.24v46.37h14.05v-46.37C1637.24,96.93,1625.86,85.69,1611.95,85.69z"/>
	</g>
	<g>
		<path class="st1" d="M1720.74,58.99h-11.24c-13.91,0-25.3,11.24-25.3,25.29v47.64c0,13.91,11.38,25.43,25.3,25.43h11.24
			c14.05,0,25.29-11.52,25.29-25.43v-7.73h-14.05v7.73c0,6.18-5.06,11.24-11.24,11.24h-11.24c-6.18,0-11.24-5.06-11.24-11.24V84.28
			c0-6.18,4.92-11.24,11.24-11.24h11.24c6.32,0,11.24,4.92,11.24,11.24v7.73h14.05v-7.73C1746.04,70.23,1734.8,58.99,1720.74,58.99z
			"/>
	</g>
	<g>
		<path class="st1" d="M1793.73,85.69h-10.82l-11.66,7.87V57.58h-14.05v99.77h14.05v-46.79l16.02-10.82h6.46
			c6.18,0,11.24,5.06,11.24,11.24v46.37h14.05v-46.37C1819.02,96.93,1807.64,85.69,1793.73,85.69z"/>
	</g>
	<g>
		<path class="st1" d="M1950.95,132.91l-16.02,10.4h-6.46c-6.18,0-11.24-5.06-11.24-11.24V85.69h-14.05v46.37
			c0,14.05,11.38,25.29,25.29,25.29h10.82l11.66-8.43v8.43H1965V85.69h-14.05V132.91z"/>
	</g>
	<g>
		<path class="st1" d="M2023.93,85.69v7.87l-11.66-7.87h-10.82c-13.91,0-25.29,11.38-25.29,25.29v21.08
			c0,14.05,11.38,25.29,25.29,25.29h10.82l11.66-7.87v21.92h14.05V85.69H2023.93z M2023.93,132.48l-16.02,10.82h-6.46
			c-6.18,0-11.24-5.06-11.24-11.24v-21.08c0-6.18,5.06-11.24,11.24-11.24h6.46l16.02,10.82V132.48z"/>
	</g>
	<g>
		<path class="st1" d="M2074.44,157.36h10.82l11.66-8.43v8.43h14.05V85.69h-14.05v47.22l-16.02,10.4h-6.46
			c-6.18,0-11.24-5.06-11.24-11.24V85.69h-14.05v46.37C2049.14,146.11,2060.52,157.36,2074.44,157.36z"/>
	</g>
	<g>
		<path class="st1" d="M2183.46,124.75v-15.18c-0.7-13.35-11.66-23.89-25.29-23.89h-11.24c-13.91,0-25.29,11.24-25.29,25.29v20.94
			c0,13.91,11.38,25.43,25.29,25.43h11.24c14.05,0,25.29-11.52,25.29-25.43v-1.4h-14.05v1.4c0,6.18-5.06,11.24-11.24,11.24h-11.24
			c-6.18,0-11.24-5.06-11.24-11.24v-7.17H2183.46z M2135.68,110.98c0-6.18,4.92-11.24,11.24-11.24h11.24
			c6.32,0,11.24,4.92,11.24,11.24v2.53h-33.72V110.98z"/>
	</g>
	<g>
		<rect x="1917.22" y="59.78" class="st1" width="33.73" height="14.05"/>
	</g>
	<g>
		<rect x="2037.98" y="171.41" class="st1" width="145.47" height="14.05"/>
	</g>
</g>
<g>
	<path class="st0" d="M523.39,58.99l-24.59,66.04v32.32h14.05v-22.76h35.13v22.76h14.05v-32.32l-24.59-66.04H523.39z M515.52,120.54
		l14.76-39.35h0.28l14.76,39.35H515.52z"/>
	<polygon class="st0" points="609.02,57.59 571.78,57.59 571.78,71.64 594.97,71.64 594.97,143.3 571.78,143.3 571.78,157.36 
		633.61,157.36 633.61,143.3 609.02,143.3 	"/>
	<path class="st0" d="M692.55,93.56l-11.66-7.87h-10.82c-13.91,0-25.29,11.24-25.29,25.29v21.08c0,13.91,11.38,25.29,25.29,25.29
		h10.82l11.66-7.87v7.87h14.05V85.69h-14.05V93.56z M692.55,132.48l-16.02,10.82h-6.47c-6.18,0-11.24-5.06-11.24-11.24v-21.08
		c0-6.18,5.06-11.24,11.24-11.24h6.47l16.02,10.82V132.48z"/>
	<path class="st0" d="M1020.3,93.56l-11.66-7.87h-10.82c-13.91,0-25.29,11.24-25.29,25.29v21.08c0,13.91,11.38,25.29,25.29,25.29
		h10.82l11.66-7.87v7.87h14.05V85.69h-14.05V93.56z M1020.3,132.48l-16.02,10.82h-6.47c-6.18,0-11.24-5.06-11.24-11.24v-21.08
		c0-6.18,5.06-11.24,11.24-11.24h6.47l16.02,10.82V132.48z"/>
	<path class="st0" d="M754.29,85.69h-10.82l-11.66,8.43v-8.43h-14.05v71.67h14.05v-47.21l16.02-10.4h6.46
		c6.18,0,11.24,5.06,11.24,11.24v46.37h14.05v-46.37C779.59,96.93,768.21,85.69,754.29,85.69z"/>
	<path class="st0" d="M863.09,58.99h-11.24c-13.91,0-25.3,11.24-25.3,25.29v47.64c0,13.91,11.38,25.43,25.3,25.43h11.24
		c14.05,0,25.29-11.52,25.29-25.43v-7.73h-14.05v7.73c0,6.18-5.06,11.24-11.24,11.24h-11.24c-6.18,0-11.24-5.06-11.24-11.24V84.28
		c0-6.18,4.92-11.24,11.24-11.24h11.24c6.32,0,11.24,4.92,11.24,11.24v7.73h14.05v-7.73C888.38,70.23,877.14,58.99,863.09,58.99z"/>
	<path class="st0" d="M936.08,85.69h-10.82l-11.66,7.87V57.58h-14.05v99.77h14.05v-46.79l16.02-10.82h6.46
		c6.18,0,11.24,5.06,11.24,11.24v46.37h14.05v-46.37C961.37,96.93,949.99,85.69,936.08,85.69z"/>
	<path class="st0" d="M1093.29,132.91l-16.02,10.4h-6.46c-6.18,0-11.24-5.06-11.24-11.24V85.69h-14.05v46.37
		c0,14.05,11.38,25.29,25.29,25.29h10.82l11.66-8.43v8.43h14.05V85.69h-14.05V132.91z"/>
	<path class="st0" d="M1166.28,85.69v7.87l-11.66-7.87h-10.82c-13.91,0-25.29,11.38-25.29,25.29v21.08
		c0,14.05,11.38,25.29,25.29,25.29h10.82l11.66-7.87v21.92h14.05V85.69H1166.28z M1166.28,132.48l-16.02,10.82h-6.46
		c-6.18,0-11.24-5.06-11.24-11.24v-21.08c0-6.18,5.06-11.24,11.24-11.24h6.46l16.02,10.82V132.48z"/>
	<path class="st0" d="M1216.78,157.36h10.82l11.66-8.43v8.43h14.05V85.69h-14.05v47.22l-16.02,10.4h-6.46
		c-6.18,0-11.24-5.06-11.24-11.24V85.69h-14.05v46.37C1191.49,146.11,1202.87,157.36,1216.78,157.36z"/>
	<path class="st0" d="M1325.8,124.75v-15.18c-0.7-13.35-11.66-23.89-25.29-23.89h-11.24c-13.91,0-25.29,11.24-25.29,25.29v20.94
		c0,13.91,11.38,25.43,25.29,25.43h11.24c14.05,0,25.29-11.52,25.29-25.43v-1.4h-14.05v1.4c0,6.18-5.06,11.24-11.24,11.24h-11.24
		c-6.19,0-11.24-5.06-11.24-11.24v-7.17H1325.8z M1278.03,110.98c0-6.18,4.92-11.24,11.24-11.24h11.24
		c6.32,0,11.24,4.92,11.24,11.24v2.53h-33.72V110.98z"/>
	<rect x="1059.57" y="59.78" class="st0" width="33.73" height="14.05"/>
	<rect x="1180.33" y="171.41" class="st0" width="145.47" height="14.05"/>
</g>
</svg>
